<svg enable-background="new 0 0 185 100" height="232.597426" viewBox="0 0 185 100" width="429.927372" xmlns="http://www.w3.org/2000/svg"><path d="m0 0h185v100h-185z" fill="#fff"/><path d="m11.3 60.1v2.1h22.5c1.4-2.6 2.7-4.9 4-7.3-5 0-9.4 0-15.6 0-1.1 1.9-1.7 2.9-3.1 5.2z" fill="#d31245"/><path d="m27.7 45.6h37.5c.8 4.5 1 5.8 1.4 8-13.6 0-29 0-43.7 0 0 0 3.2-5.4 4.8-8z" fill="#d31245"/><path d="m28.4 44.3c1.2-2.1 2.3-3.9 3.5-5.9h14.8c-1.1 2-1.2 2.2-3.2 5.9-5 0-9.8 0-15.1 0z" fill="#d31245"/><path d="m36.2 31.2h26.3c.4 2 .7 3.8 1.1 5.9-4.1 0-9.2 0-13.4 0 0 0-.1-.6-.6-4-1.2 2.3-2.1 4-2.2 4-4.7 0-9.6 0-14.7 0 0-.1 2.4-4 3.5-5.9z" fill="#005daa"/><path d="m36.9 29.8c.7-1.2 2.3-4 2.3-4h22.2c.3 1.4.3 1.7.7 4-7.7 0-16.8 0-25.2 0z" fill="#005daa"/><path d="m40.4 24c.9-1.6 1.3-2.3 2.1-3.6h18c.3 1.6.3 1.9.8 4.1-7 0-14.2 0-21.2 0 0 0 .2-.4.3-.5z" fill="#005daa"/><path d="m43.3 19c.8-1.3 2.5-4.2 2.5-4.2h13.7c.3 1.7.3 1.5.8 4.2-5.5 0-11.4 0-17 0z" fill="#005daa"/><path d="m51.1 44.3c-.3-2.1-.2-1.3-.8-5.9h13.5c.5 2.7.7 4 1.1 5.9-4.7 0-9.4 0-13.8 0z" fill="#d31245"/><path d="m53.5 62.3c-.3-2.5-.7-5-1-7.3h14.3c1 5.3.9 5 1.4 7.3-4.8 0-9.8 0-14.7 0z" fill="#d31245"/><path d="m94.8 62.2c-9.4 0-11.1 0-24.3 0 .6-3.7.9-5.3 1.3-7.3h38.4c-1.6 3.7-5.7 6.2-9.7 6.9-2.1.5-4.1.4-5.7.4z" fill="#d31245"/><path d="m72 53.6c.3-1.9 1-5.7 1.4-8h13.2c-.4 2.4-.5 2.9-.9 5.5h7.4c3.5-.2 6.2-1.6 6.4-5.5h12.1c.6 2.7-.4 7.3-.9 8-12.9 0-25.7 0-38.7 0z" fill="#d31245"/><path d="m73.6 44.3c.4-2.5.7-4 1-5.9h32.9c1.7 1.6 3.5 4.2 3.8 5.9-2.1 0-4.4 0-6.6 0-1.7 0-3.6 0-5.4 0-.5-2.3-3-2.9-6.5-2.9-.9 0-4 0-5.5 0-.2 1.4-.2 1.5-.5 2.9-4.3 0-8.7 0-13.2 0z" fill="#d31245"/><path d="m74.9 37c.4-2.1.6-3.5 1-5.9h13c-.2 1.2-.3 2-.5 3.6h8.5c2.3 0 4.7-1.8 4.9-3.6h11.2c-.8 2.6-3.2 4.3-5.2 5.9-10.9 0-21.8 0-32.9 0z" fill="#005daa"/><path d="m76.1 29.8c.4-2.1.5-2.7.7-4h12.9c-.3 2-.3 2.3-.6 4-4.3 0-8.6 0-13 0z" fill="#005daa"/><path d="m77.1 24.5c.3-1.9.4-2.2.7-4.1h34.6c.9 1.4 1.2 2.5 1.4 4.1-12.1 0-24.6 0-36.7 0z" fill="#005daa"/><path d="m78 19c.4-2.4.5-2.9.7-4.2h21.7c9.1 0 11.2 4.2 11.2 4.2-10.1 0-22.5 0-33.6 0z" fill="#005daa"/><path d="m101.9 29.8c-.1-1.4-.1-2.8-3-4h15.1c.1 1.4-.1 2.7-.5 4-3.8 0-7.8 0-11.6 0z" fill="#005daa"/><path d="m153.1 55c-3.6 4.6-8.7 6.9-14.2 7.7-7.4 1-15-1.4-19.3-7.8 12.1 0 22.2 0 33.5.1z" fill="#d31245"/><path d="m118.8 53.6c-1.3-1.8-2.3-5.4-2.6-8h14.1c1 2.5 2.7 4.7 5.3 5.1 3.7.6 6.5-2.2 8.1-5.1h14.7c-1 2.8-3.1 6.4-4.4 8-12 0-23 0-35.2 0z" fill="#d31245"/><path d="m116 44.3c-.2-1.1-.2-3.9 0-5.9h13.9c-.3 1.8-.3 3.8.1 5.9-4.7 0-9.2 0-14 0z" fill="#d31245"/><path d="m116.2 37c.3-2.1.6-3.6 1.5-5.9h15c-1.1 1.7-2 3.8-2.5 5.9-4.6 0-9.2 0-14 0z" fill="#005daa"/><path d="m118.2 29.8c.9-1.8 2.2-4 2.2-4h17.9c-2 .8-3.6 2.1-4.9 4-4.9 0-9.9 0-15.2 0z" fill="#005daa"/><path d="m121.4 24.5c2.2-2.8 3.9-4.1 3.9-4.1h30.4s1.5 1.6 2.7 4.1c-12.4 0-24.6 0-37 0z" fill="#005daa"/><path d="m126.9 19c3.7-2.6 8.2-4.6 12.3-4.9.8-.1 1.3-.1 1.8-.1s2.1 0 2.5.1c2.7.3 3.3.3 5.5 1.1h19v2.6c-4.5 0-9.4 0-14.7 0 .6.5.9.8 1.3 1.3-9-.1-18.5-.1-27.7-.1z" fill="#005daa"/><path d="m144.7 28.1c-.6-.7-1.3-1.7-2.3-2.3h16.5c.6 1.3.8 2.3 1 4-4.5 0-9.6 0-14.3 0 .1 0-.1-.6-.9-1.7z" fill="#005daa"/><path d="m146.1 31.2h13.9s.1 1.3.1 1.9c-4.4 0-8.9 0-13.6 0-.1-1.1-.4-1.9-.4-1.9z" fill="#005daa"/><path d="m145.5 41.9h14c-.1.6-.6 2.4-.6 2.4-1.6 0-9.4 0-14.4 0 .6-1.1 1-2.4 1-2.4z" fill="#d31245"/><g fill="#005daa"><path d="m156.9 57c.7 0 1.2.2 1.7.7s.7 1 .7 1.7-.2 1.2-.7 1.7-1 .7-1.7.7-1.2-.2-1.7-.7-.7-1-.7-1.7.2-1.2.7-1.7c.5-.4 1-.7 1.7-.7zm2.8 2.4c0-.8-.3-1.4-.8-2-.6-.5-1.2-.8-2-.8s-1.4.3-2 .8c-.5.6-.8 1.2-.8 2s.3 1.4.8 2 1.2.8 2 .8 1.4-.3 2-.8.8-1.2.8-2zm-2-.6c0 .2-.1.4-.3.5-.1 0-.3.1-.5.1h-.5v-1.1h.5c.3 0 .5 0 .7.1 0 .1.1.2.1.4zm-1.9-.9v3.1h.5v-1.2h.4c.3 0 .5 0 .6.1.2.1.3.3.3.7v.2.1h.5s0-.1 0-.2 0-.2 0-.2v-.2c0-.2-.1-.3-.2-.5s-.3-.3-.5-.3c.2 0 .3-.1.4-.1.2-.1.3-.3.3-.6 0-.4-.2-.7-.5-.8-.2-.1-.5-.1-.8-.1z"/><path d="m21.8 77.7c-.1.8-.1 2.2 2.5 2.2 1.4 0 3.1-.3 3.4-1.8.2-1.1-.8-1.3-2.2-1.7l-1.5-.2c-2.2-.5-4.3-1-3.6-4 .3-1.5 1.8-4.2 6.4-4.2 4.4 0 4.9 2.7 4.6 4.4h-2.9c.1-.6.1-2-2.5-2-1.1 0-2.6.4-2.9 1.6-.2 1.1.6 1.3 1.2 1.4l3.3.8c1.8.5 3.5 1.2 2.9 3.7-.9 4.1-5.4 4.5-6.6 4.5-5.2 0-5.5-2.9-5.1-4.5h3z"/><path d="m41.3 81.9h-2.7l.3-1.4c-.9 1.1-2.1 1.7-3.6 1.7-2.1 0-3.4-1.1-2.8-3.7l1.5-6.6h2.8l-1.4 6.3c-.3 1.6.5 1.9 1.4 1.9s2.3-.5 2.7-2.3l1.3-5.8h2.8z"/><path d="m47.5 77.1c.4-1.6 1.2-3.2 3.1-3.2 1.8 0 2 1.5 1.7 3.1-.3 1.2-1.2 3-3 3-1.7 0-2.1-1.4-1.8-2.9zm1.2-5.3h-2.7l-3.1 14h2.8l1.2-5.2c.2.5.7 1.6 2.6 1.6 3.2 0 5.1-2.7 5.7-5.4.8-3.5-.9-5.2-3.2-5.2-1.9 0-2.9.9-3.5 1.7z"/><path d="m59.7 77.1c.4-1.6 1.2-3.2 3.1-3.2 1.8 0 2 1.5 1.7 3.1-.3 1.2-1.2 3-3 3s-2.2-1.4-1.8-2.9zm1.1-5.3h-2.7l-3.1 14h2.8l1.2-5.2c.2.5.7 1.6 2.6 1.6 3.1 0 5.1-2.7 5.7-5.4.8-3.5-.9-5.2-3.2-5.2-1.9 0-2.9.9-3.6 1.7z"/><path d="m71 81.9h-2.8l3-13.6h2.8z"/><path d="m79.4 81.8c-2.2 3.7-2.6 4.2-5 4.2-.4 0-.9 0-1.2 0l.5-2.1h.5c1 0 1.6-.1 2.2-1.5l-1.6-10.5h3.1l.6 7.4 3.8-7.4h2.9z"/><path d="m100.9 72.8c-.1-.8-.2-2.4-2.5-2.4-1.4 0-3.6.9-4.4 4.8-.5 2.4 0 4.6 2.4 4.6 1.6 0 2.9-.9 3.6-2.6h2.8c-1.2 3-3.6 5-7 5-3.6 0-5.7-2.4-4.7-7.2s4.3-7.2 7.8-7.2c4.1 0 5.1 2.8 4.9 4.8h-2.9z"/><path d="m111.8 76.9c-.3 1.3-1 3.1-3.1 3.1-2 0-2-1.8-1.8-3.1.3-1.3 1-3.1 3.1-3.1s2.1 1.8 1.8 3.1zm2.7 0c.8-3.6-1.3-5.3-4-5.3s-5.5 1.7-6.3 5.3 1.3 5.3 4 5.3c2.8 0 5.6-1.7 6.3-5.3z"/><path d="m118.1 81.9h-2.8l.6-2.8h2.8z"/><path d="m130.6 71.8-2.1 10.1h-2.7l2.2-10.1zm.3-1.1h-2.7l.5-2.5h2.7z"/><path d="m140.1 81.9h-2.7l1.3-6.1c.2-.7.4-2-1.3-2-1.2 0-2.3.8-2.6 2.3l-1.2 5.8h-2.6l2.1-10.1h2.5l-.3 1.5c.5-.6 1.5-1.7 3.4-1.7 2 0 3.3 1.2 2.8 3.4z"/><path d="m152 78.3c-.3 1-1.7 3.9-5.4 3.9-3.8 0-4-2.9-3.6-5 .7-3.3 2.6-5.6 6-5.6 1.6 0 4.1.7 3.6 3.9h-2.7c0-.7-.2-1.7-1.4-1.6-1.7 0-2.5 1.7-2.7 2.9-.2 1.1-.7 3.3 1.4 3.3 1.3 0 2.1-1.3 2.2-1.8z"/><path d="m155.9 81.9h-2.9l.6-2.8h2.8z"/></g></svg>