<svg xmlns="http://www.w3.org/2000/svg" xmlns:xlink="http://www.w3.org/1999/xlink" width="1363" zoomAndPan="magnify" viewBox="0 0 1022.25 458.999989" height="612" preserveAspectRatio="xMidYMid meet" version="1.0"><defs><g/><clipPath id="796a8da510"><path d="M 95.957031 264.101562 L 146.808594 264.101562 L 146.808594 272.386719 L 95.957031 272.386719 Z M 95.957031 264.101562 " clip-rule="nonzero"/></clipPath><clipPath id="7b84962ce5"><path d="M 95.957031 278.519531 L 146.808594 278.519531 L 146.808594 286.804688 L 95.957031 286.804688 Z M 95.957031 278.519531 " clip-rule="nonzero"/></clipPath><clipPath id="9c97f2cad2"><path d="M 95.957031 292.941406 L 146.808594 292.941406 L 146.808594 301.226562 L 95.957031 301.226562 Z M 95.957031 292.941406 " clip-rule="nonzero"/></clipPath><clipPath id="606feefd39"><path d="M 95.957031 307.363281 L 146.808594 307.363281 L 146.808594 315.648438 L 95.957031 315.648438 Z M 95.957031 307.363281 " clip-rule="nonzero"/></clipPath></defs><g fill="#585a5d" fill-opacity="1"><g transform="translate(81.149377, 278.546632)"><g><path d="M 127.046875 -27.46875 L 105.75 -27.46875 L 105.75 0 L 76.21875 0 L 76.21875 -27.46875 L 5.796875 -27.46875 L 5.796875 -47.828125 L 67.4375 -130.78125 L 99.203125 -130.78125 L 42.03125 -52.125 L 77.15625 -52.125 L 77.15625 -76.59375 L 105.75 -76.59375 L 105.75 -52.125 L 127.046875 -52.125 Z M 127.046875 -27.46875 "/></g></g></g><g fill="#585a5d" fill-opacity="1"><g transform="translate(212.30655, 278.546632)"><g><path d="M 13.453125 -100.515625 L 42.59375 -100.515625 L 42.59375 0 L 13.453125 0 Z M 28.03125 -114.53125 C 22.675781 -114.53125 18.316406 -116.082031 14.953125 -119.1875 C 11.585938 -122.300781 9.90625 -126.164062 9.90625 -130.78125 C 9.90625 -135.382812 11.585938 -139.242188 14.953125 -142.359375 C 18.316406 -145.472656 22.675781 -147.03125 28.03125 -147.03125 C 33.382812 -147.03125 37.742188 -145.535156 41.109375 -142.546875 C 44.472656 -139.554688 46.15625 -135.820312 46.15625 -131.34375 C 46.15625 -126.476562 44.472656 -122.457031 41.109375 -119.28125 C 37.742188 -116.113281 33.382812 -114.53125 28.03125 -114.53125 Z M 28.03125 -114.53125 "/></g></g></g><g clip-path="url(#796a8da510)"><path fill="#f75f01" d="M 95.957031 264.101562 L 146.800781 264.101562 L 146.800781 272.386719 L 95.957031 272.386719 Z M 95.957031 264.101562 " fill-opacity="1" fill-rule="nonzero"/></g><g clip-path="url(#7b84962ce5)"><path fill="#6e9f42" d="M 95.957031 278.519531 L 146.800781 278.519531 L 146.800781 286.804688 L 95.957031 286.804688 Z M 95.957031 278.519531 " fill-opacity="1" fill-rule="nonzero"/></g><g clip-path="url(#9c97f2cad2)"><path fill="#6e9f42" d="M 95.957031 292.941406 L 146.800781 292.941406 L 146.800781 301.226562 L 95.957031 301.226562 Z M 95.957031 292.941406 " fill-opacity="1" fill-rule="nonzero"/></g><g clip-path="url(#606feefd39)"><path fill="#6e9f42" d="M 95.957031 307.363281 L 146.800781 307.363281 L 146.800781 315.648438 L 95.957031 315.648438 Z M 95.957031 307.363281 " fill-opacity="1" fill-rule="nonzero"/></g><g fill="#6e9f42" fill-opacity="1"><g transform="translate(265.634034, 279.137218)"><g><path d="M 104.640625 -51.40625 C 104.640625 -50.757812 104.640625 -50.128906 104.640625 -49.515625 C 104.640625 -48.910156 104.570312 -48.03125 104.4375 -46.875 L 19.640625 -46.875 C 19.960938 -40.90625 21.210938 -35.53125 23.390625 -30.75 C 25.566406 -25.96875 28.390625 -21.859375 31.859375 -18.421875 C 35.328125 -14.992188 39.226562 -12.378906 43.5625 -10.578125 C 47.894531 -8.785156 52.367188 -7.890625 56.984375 -7.890625 C 64.109375 -7.890625 70.523438 -9.625 76.234375 -13.09375 C 81.953125 -16.5625 86.125 -21.597656 88.75 -28.203125 L 101.171875 -28.203125 C 99.179688 -22.234375 96.019531 -16.9375 91.6875 -12.3125 C 87.351562 -7.695312 82.234375 -4.070312 76.328125 -1.4375 C 70.429688 1.1875 64.046875 2.5 57.171875 2.5 C 50.367188 2.5 44.03125 1.1875 38.15625 -1.4375 C 32.289062 -4.070312 27.128906 -7.710938 22.671875 -12.359375 C 18.210938 -17.015625 14.726562 -22.453125 12.21875 -28.671875 C 9.71875 -34.898438 8.46875 -41.578125 8.46875 -48.703125 C 8.46875 -55.828125 9.71875 -62.5 12.21875 -68.71875 C 14.726562 -74.945312 18.210938 -80.421875 22.671875 -85.140625 C 27.128906 -89.859375 32.289062 -93.53125 38.15625 -96.15625 C 44.03125 -98.789062 50.367188 -100.109375 57.171875 -100.109375 C 63.910156 -100.109375 70.164062 -98.804688 75.9375 -96.203125 C 81.71875 -93.609375 86.757812 -90.046875 91.0625 -85.515625 C 95.363281 -80.992188 98.703125 -75.796875 101.078125 -69.921875 C 103.453125 -64.054688 104.640625 -57.882812 104.640625 -51.40625 Z M 20.125 -56.796875 L 93.375 -56.796875 C 93.113281 -61.160156 91.988281 -65.3125 90 -69.25 C 88.007812 -73.195312 85.363281 -76.695312 82.0625 -79.75 C 78.757812 -82.800781 74.957031 -85.191406 70.65625 -86.921875 C 66.351562 -88.648438 61.796875 -89.515625 56.984375 -89.515625 C 52.554688 -89.515625 48.304688 -88.757812 44.234375 -87.25 C 40.160156 -85.75 36.4375 -83.570312 33.0625 -80.71875 C 29.695312 -77.863281 26.890625 -74.410156 24.640625 -70.359375 C 22.398438 -66.316406 20.894531 -61.796875 20.125 -56.796875 Z M 20.125 -56.796875 "/></g></g></g><g fill="#6e9f42" fill-opacity="1"><g transform="translate(376.911359, 279.137218)"><g><path d="M 28.78125 0 L 17.71875 0 L 17.71875 -97.515625 L 28.390625 -97.515625 L 28.390625 -75.65625 C 30.253906 -80.40625 33.046875 -84.609375 36.765625 -88.265625 C 40.492188 -91.921875 44.921875 -94.804688 50.046875 -96.921875 C 55.179688 -99.046875 60.703125 -100.109375 66.609375 -100.109375 C 79.441406 -100.109375 89.289062 -96.238281 96.15625 -88.5 C 103.03125 -80.769531 106.46875 -68.984375 106.46875 -53.140625 L 106.46875 0 L 95.296875 0 L 95.296875 -52.9375 C 95.296875 -65.582031 92.550781 -74.859375 87.0625 -80.765625 C 81.582031 -86.671875 73.929688 -89.625 64.109375 -89.625 C 59.484375 -89.625 55.066406 -88.738281 50.859375 -86.96875 C 46.660156 -85.207031 42.894531 -82.6875 39.5625 -79.40625 C 36.226562 -76.132812 33.597656 -72.238281 31.671875 -67.71875 C 29.742188 -63.195312 28.78125 -58.144531 28.78125 -52.5625 Z M 28.78125 0 "/></g></g></g><g fill="#6e9f42" fill-opacity="1"><g transform="translate(499.547442, 279.137218)"><g><path d="M 104.640625 -51.40625 C 104.640625 -50.757812 104.640625 -50.128906 104.640625 -49.515625 C 104.640625 -48.910156 104.570312 -48.03125 104.4375 -46.875 L 19.640625 -46.875 C 19.960938 -40.90625 21.210938 -35.53125 23.390625 -30.75 C 25.566406 -25.96875 28.390625 -21.859375 31.859375 -18.421875 C 35.328125 -14.992188 39.226562 -12.378906 43.5625 -10.578125 C 47.894531 -8.785156 52.367188 -7.890625 56.984375 -7.890625 C 64.109375 -7.890625 70.523438 -9.625 76.234375 -13.09375 C 81.953125 -16.5625 86.125 -21.597656 88.75 -28.203125 L 101.171875 -28.203125 C 99.179688 -22.234375 96.019531 -16.9375 91.6875 -12.3125 C 87.351562 -7.695312 82.234375 -4.070312 76.328125 -1.4375 C 70.429688 1.1875 64.046875 2.5 57.171875 2.5 C 50.367188 2.5 44.03125 1.1875 38.15625 -1.4375 C 32.289062 -4.070312 27.128906 -7.710938 22.671875 -12.359375 C 18.210938 -17.015625 14.726562 -22.453125 12.21875 -28.671875 C 9.71875 -34.898438 8.46875 -41.578125 8.46875 -48.703125 C 8.46875 -55.828125 9.71875 -62.5 12.21875 -68.71875 C 14.726562 -74.945312 18.210938 -80.421875 22.671875 -85.140625 C 27.128906 -89.859375 32.289062 -93.53125 38.15625 -96.15625 C 44.03125 -98.789062 50.367188 -100.109375 57.171875 -100.109375 C 63.910156 -100.109375 70.164062 -98.804688 75.9375 -96.203125 C 81.71875 -93.609375 86.757812 -90.046875 91.0625 -85.515625 C 95.363281 -80.992188 98.703125 -75.796875 101.078125 -69.921875 C 103.453125 -64.054688 104.640625 -57.882812 104.640625 -51.40625 Z M 20.125 -56.796875 L 93.375 -56.796875 C 93.113281 -61.160156 91.988281 -65.3125 90 -69.25 C 88.007812 -73.195312 85.363281 -76.695312 82.0625 -79.75 C 78.757812 -82.800781 74.957031 -85.191406 70.65625 -86.921875 C 66.351562 -88.648438 61.796875 -89.515625 56.984375 -89.515625 C 52.554688 -89.515625 48.304688 -88.757812 44.234375 -87.25 C 40.160156 -85.75 36.4375 -83.570312 33.0625 -80.71875 C 29.695312 -77.863281 26.890625 -74.410156 24.640625 -70.359375 C 22.398438 -66.316406 20.894531 -61.796875 20.125 -56.796875 Z M 20.125 -56.796875 "/></g></g></g><g fill="#6e9f42" fill-opacity="1"><g transform="translate(610.824749, 279.137218)"><g><path d="M 28.875 0 L 17.71875 0 L 17.71875 -97.515625 L 28.5 -97.515625 L 28.5 -72.1875 C 31 -80.144531 35.117188 -86.351562 40.859375 -90.8125 C 46.609375 -95.28125 53.300781 -97.515625 60.9375 -97.515625 L 69.59375 -97.515625 L 69.59375 -87.5 L 61.40625 -87.5 C 55.375 -87.5 49.90625 -85.863281 45 -82.59375 C 40.09375 -79.320312 36.175781 -74.617188 33.25 -68.484375 C 30.332031 -62.359375 28.875 -54.992188 28.875 -46.390625 Z M 28.875 0 "/></g></g></g><g fill="#6e9f42" fill-opacity="1"><g transform="translate(684.271642, 279.137218)"><g><path d="M 58.90625 36.484375 C 50.820312 36.484375 43.921875 35.457031 38.203125 33.40625 C 32.492188 31.351562 27.8125 28.625 24.15625 25.21875 C 20.5 21.820312 17.738281 18.019531 15.875 13.8125 C 14.019531 9.613281 12.929688 5.363281 12.609375 1.0625 L 23.203125 1.0625 C 23.710938 4.332031 24.703125 7.503906 26.171875 10.578125 C 27.648438 13.660156 29.785156 16.40625 32.578125 18.8125 C 35.367188 21.21875 38.914062 23.144531 43.21875 24.59375 C 47.519531 26.039062 52.71875 26.765625 58.8125 26.765625 C 66 26.765625 72.09375 25.625 77.09375 23.34375 C 82.101562 21.0625 86.164062 17.976562 89.28125 14.09375 C 92.394531 10.21875 94.65625 5.835938 96.0625 0.953125 C 97.476562 -3.921875 98.1875 -8.921875 98.1875 -14.046875 L 98.1875 -27.921875 C 95.8125 -22.398438 92.550781 -17.632812 88.40625 -13.625 C 84.269531 -9.613281 79.519531 -6.546875 74.15625 -4.421875 C 68.800781 -2.304688 63.078125 -1.25 56.984375 -1.25 C 50.179688 -1.25 43.828125 -2.53125 37.921875 -5.09375 C 32.023438 -7.664062 26.878906 -11.210938 22.484375 -15.734375 C 18.085938 -20.265625 14.648438 -25.492188 12.171875 -31.421875 C 9.703125 -37.359375 8.46875 -43.695312 8.46875 -50.4375 C 8.46875 -57.175781 9.6875 -63.53125 12.125 -69.5 C 14.5625 -75.46875 17.976562 -80.742188 22.375 -85.328125 C 26.769531 -89.921875 31.890625 -93.515625 37.734375 -96.109375 C 43.578125 -98.710938 49.898438 -100.015625 56.703125 -100.015625 C 63.242188 -100.015625 69.253906 -98.828125 74.734375 -96.453125 C 80.222656 -94.078125 84.972656 -90.851562 88.984375 -86.78125 C 93.003906 -82.707031 96.070312 -78.101562 98.1875 -72.96875 L 98.1875 -97.515625 L 108.875 -97.515625 L 108.875 -14.625 C 108.875 -7.894531 107.894531 -1.46875 105.9375 4.65625 C 103.976562 10.789062 100.976562 16.25 96.9375 21.03125 C 92.894531 25.8125 87.726562 29.582031 81.4375 32.34375 C 75.144531 35.101562 67.632812 36.484375 58.90625 36.484375 Z M 58.71875 -11.359375 C 64.101562 -11.359375 69.171875 -12.367188 73.921875 -14.390625 C 78.671875 -16.410156 82.828125 -19.21875 86.390625 -22.8125 C 89.953125 -26.40625 92.742188 -30.5625 94.765625 -35.28125 C 96.785156 -40 97.796875 -45.050781 97.796875 -50.4375 C 97.796875 -55.769531 96.785156 -60.789062 94.765625 -65.5 C 92.742188 -70.21875 89.953125 -74.375 86.390625 -77.96875 C 82.828125 -81.5625 78.671875 -84.382812 73.921875 -86.4375 C 69.171875 -88.488281 64.101562 -89.515625 58.71875 -89.515625 C 53.257812 -89.515625 48.171875 -88.519531 43.453125 -86.53125 C 38.742188 -84.539062 34.59375 -81.765625 31 -78.203125 C 27.40625 -74.648438 24.597656 -70.5 22.578125 -65.75 C 20.554688 -61 19.546875 -55.894531 19.546875 -50.4375 C 19.546875 -44.988281 20.554688 -39.890625 22.578125 -35.140625 C 24.597656 -30.390625 27.40625 -26.234375 31 -22.671875 C 34.59375 -19.109375 38.742188 -16.332031 43.453125 -14.34375 C 48.171875 -12.351562 53.257812 -11.359375 58.71875 -11.359375 Z M 58.71875 -11.359375 "/></g></g></g><g fill="#6e9f42" fill-opacity="1"><g transform="translate(810.85442, 279.137218)"><g><path d="M 20.890625 33.3125 L 5.109375 33.3125 L 5.109375 23.6875 L 21.28125 23.6875 C 25.570312 23.6875 29.015625 22.847656 31.609375 21.171875 C 34.210938 19.503906 36.445312 16.984375 38.3125 13.609375 C 40.175781 10.242188 42.101562 5.992188 44.09375 0.859375 L 44.953125 -1.546875 L 5.296875 -97.515625 L 17.03125 -97.515625 L 48.703125 -20.3125 L 50.828125 -13 L 53.234375 -20.21875 L 84.609375 -97.515625 L 96.546875 -97.515625 L 57.5625 -3.078125 C 54.925781 3.460938 52.484375 9.023438 50.234375 13.609375 C 47.992188 18.203125 45.585938 21.957031 43.015625 24.875 C 40.453125 27.800781 37.421875 29.9375 33.921875 31.28125 C 30.429688 32.632812 26.085938 33.3125 20.890625 33.3125 Z M 20.890625 33.3125 "/></g></g></g><g fill="#585a5d" fill-opacity="1"><g transform="translate(330.401788, 322.473224)"><g><path d="M 11.390625 0.234375 C 8.703125 0.234375 6.609375 -0.535156 5.109375 -2.078125 C 3.609375 -3.617188 2.859375 -5.828125 2.859375 -8.703125 L 2.859375 -20.1875 L 5.734375 -20.1875 L 5.734375 -8.828125 C 5.734375 -4.503906 7.628906 -2.34375 11.421875 -2.34375 C 13.265625 -2.34375 14.675781 -2.875 15.65625 -3.9375 C 16.644531 -5 17.140625 -6.628906 17.140625 -8.828125 L 17.140625 -20.1875 L 19.9375 -20.1875 L 19.9375 -8.703125 C 19.9375 -5.804688 19.1875 -3.59375 17.6875 -2.0625 C 16.1875 -0.53125 14.085938 0.234375 11.390625 0.234375 Z M 11.390625 0.234375 "/></g></g></g><g fill="#585a5d" fill-opacity="1"><g transform="translate(353.273583, 322.473224)"><g><path d="M 10.78125 -15.4375 C 12.726562 -15.4375 14.273438 -14.875 15.421875 -13.75 C 16.566406 -12.625 17.140625 -10.972656 17.140625 -8.796875 L 17.140625 0 L 14.359375 0 L 14.359375 -8.484375 C 14.359375 -9.960938 14.003906 -11.078125 13.296875 -11.828125 C 12.585938 -12.578125 11.566406 -12.953125 10.234375 -12.953125 C 8.734375 -12.953125 7.550781 -12.515625 6.6875 -11.640625 C 5.820312 -10.765625 5.390625 -9.507812 5.390625 -7.875 L 5.390625 0 L 2.625 0 L 2.625 -15.28125 L 5.28125 -15.28125 L 5.28125 -12.984375 C 5.832031 -13.765625 6.582031 -14.367188 7.53125 -14.796875 C 8.488281 -15.222656 9.570312 -15.4375 10.78125 -15.4375 Z M 10.78125 -15.4375 "/></g></g></g><g fill="#585a5d" fill-opacity="1"><g transform="translate(372.972736, 322.473224)"><g><path d="M 10.734375 -15.4375 C 12.210938 -15.4375 13.535156 -15.109375 14.703125 -14.453125 C 15.878906 -13.796875 16.796875 -12.878906 17.453125 -11.703125 C 18.117188 -10.535156 18.453125 -9.179688 18.453125 -7.640625 C 18.453125 -6.109375 18.117188 -4.75 17.453125 -3.5625 C 16.796875 -2.375 15.878906 -1.453125 14.703125 -0.796875 C 13.535156 -0.148438 12.210938 0.171875 10.734375 0.171875 C 9.628906 0.171875 8.617188 -0.0351562 7.703125 -0.453125 C 6.796875 -0.878906 6.023438 -1.5 5.390625 -2.3125 L 5.390625 5.59375 L 2.625 5.59375 L 2.625 -15.28125 L 5.28125 -15.28125 L 5.28125 -12.859375 C 5.894531 -13.710938 6.671875 -14.351562 7.609375 -14.78125 C 8.554688 -15.21875 9.597656 -15.4375 10.734375 -15.4375 Z M 10.5 -2.25 C 11.476562 -2.25 12.359375 -2.472656 13.140625 -2.921875 C 13.921875 -3.378906 14.535156 -4.015625 14.984375 -4.828125 C 15.429688 -5.648438 15.65625 -6.585938 15.65625 -7.640625 C 15.65625 -8.703125 15.429688 -9.640625 14.984375 -10.453125 C 14.535156 -11.273438 13.921875 -11.90625 13.140625 -12.34375 C 12.359375 -12.789062 11.476562 -13.015625 10.5 -13.015625 C 9.539062 -13.015625 8.671875 -12.785156 7.890625 -12.328125 C 7.109375 -11.878906 6.488281 -11.25 6.03125 -10.4375 C 5.582031 -9.632812 5.359375 -8.703125 5.359375 -7.640625 C 5.359375 -6.585938 5.578125 -5.648438 6.015625 -4.828125 C 6.460938 -4.015625 7.082031 -3.378906 7.875 -2.921875 C 8.664062 -2.472656 9.539062 -2.25 10.5 -2.25 Z M 10.5 -2.25 "/></g></g></g><g fill="#585a5d" fill-opacity="1"><g transform="translate(392.700744, 322.473224)"><g><path d="M 2.625 -21.40625 L 5.390625 -21.40625 L 5.390625 0 L 2.625 0 Z M 2.625 -21.40625 "/></g></g></g><g fill="#585a5d" fill-opacity="1"><g transform="translate(400.805386, 322.473224)"><g><path d="M 16.875 -15.28125 L 16.875 0 L 14.25 0 L 14.25 -2.3125 C 13.6875 -1.519531 12.945312 -0.90625 12.03125 -0.46875 C 11.125 -0.0390625 10.132812 0.171875 9.0625 0.171875 C 7.019531 0.171875 5.410156 -0.390625 4.234375 -1.515625 C 3.066406 -2.640625 2.484375 -4.296875 2.484375 -6.484375 L 2.484375 -15.28125 L 5.25 -15.28125 L 5.25 -6.8125 C 5.25 -5.332031 5.601562 -4.210938 6.3125 -3.453125 C 7.03125 -2.691406 8.050781 -2.3125 9.375 -2.3125 C 10.832031 -2.3125 11.984375 -2.753906 12.828125 -3.640625 C 13.679688 -4.523438 14.109375 -5.773438 14.109375 -7.390625 L 14.109375 -15.28125 Z M 16.875 -15.28125 "/></g></g></g><g fill="#585a5d" fill-opacity="1"><g transform="translate(420.389173, 322.473224)"><g><path d="M 17.25 -15.28125 L 17.25 -2.078125 C 17.25 0.597656 16.582031 2.570312 15.25 3.84375 C 13.925781 5.125 11.945312 5.765625 9.3125 5.765625 C 7.875 5.765625 6.5 5.566406 5.1875 5.171875 C 3.882812 4.785156 2.828125 4.222656 2.015625 3.484375 L 3.34375 1.359375 C 4.050781 1.972656 4.929688 2.457031 5.984375 2.8125 C 7.035156 3.164062 8.117188 3.34375 9.234375 3.34375 C 11.015625 3.34375 12.332031 2.921875 13.1875 2.078125 C 14.050781 1.234375 14.484375 -0.0507812 14.484375 -1.78125 L 14.484375 -3 C 13.828125 -2.207031 13.019531 -1.613281 12.0625 -1.21875 C 11.113281 -0.832031 10.082031 -0.640625 8.96875 -0.640625 C 7.507812 -0.640625 6.1875 -0.953125 5 -1.578125 C 3.820312 -2.203125 2.894531 -3.078125 2.21875 -4.203125 C 1.550781 -5.328125 1.21875 -6.609375 1.21875 -8.046875 C 1.21875 -9.484375 1.550781 -10.765625 2.21875 -11.890625 C 2.894531 -13.015625 3.820312 -13.882812 5 -14.5 C 6.1875 -15.125 7.507812 -15.4375 8.96875 -15.4375 C 10.125 -15.4375 11.195312 -15.222656 12.1875 -14.796875 C 13.175781 -14.367188 13.988281 -13.742188 14.625 -12.921875 L 14.625 -15.28125 Z M 9.28125 -3.0625 C 10.28125 -3.0625 11.179688 -3.269531 11.984375 -3.6875 C 12.785156 -4.113281 13.410156 -4.707031 13.859375 -5.46875 C 14.304688 -6.226562 14.53125 -7.085938 14.53125 -8.046875 C 14.53125 -9.523438 14.039062 -10.722656 13.0625 -11.640625 C 12.082031 -12.554688 10.820312 -13.015625 9.28125 -13.015625 C 7.726562 -13.015625 6.460938 -12.554688 5.484375 -11.640625 C 4.503906 -10.722656 4.015625 -9.523438 4.015625 -8.046875 C 4.015625 -7.085938 4.238281 -6.226562 4.6875 -5.46875 C 5.132812 -4.707031 5.757812 -4.113281 6.5625 -3.6875 C 7.363281 -3.269531 8.269531 -3.0625 9.28125 -3.0625 Z M 9.28125 -3.0625 "/></g></g></g><g fill="#585a5d" fill-opacity="1"><g transform="translate(440.347903, 322.473224)"><g/></g></g><g fill="#585a5d" fill-opacity="1"><g transform="translate(448.164113, 322.473224)"><g><path d="M 8.21875 -19.296875 C 6.5625 -19.296875 5.734375 -18.398438 5.734375 -16.609375 L 5.734375 -15.28125 L 10.1875 -15.28125 L 10.1875 -13.015625 L 5.796875 -13.015625 L 5.796875 0 L 3.03125 0 L 3.03125 -13.015625 L 0.4375 -13.015625 L 0.4375 -15.28125 L 3.03125 -15.28125 L 3.03125 -16.640625 C 3.03125 -18.160156 3.472656 -19.363281 4.359375 -20.25 C 5.242188 -21.132812 6.484375 -21.578125 8.078125 -21.578125 C 8.691406 -21.578125 9.265625 -21.5 9.796875 -21.34375 C 10.335938 -21.1875 10.800781 -20.96875 11.1875 -20.6875 L 10.359375 -18.578125 C 9.722656 -19.054688 9.007812 -19.296875 8.21875 -19.296875 Z M 8.21875 -19.296875 "/></g></g></g><g fill="#585a5d" fill-opacity="1"><g transform="translate(458.403068, 322.473224)"><g><path d="M 5.28125 -12.71875 C 5.757812 -13.601562 6.46875 -14.273438 7.40625 -14.734375 C 8.351562 -15.203125 9.5 -15.4375 10.84375 -15.4375 L 10.84375 -12.75 C 10.6875 -12.769531 10.472656 -12.78125 10.203125 -12.78125 C 8.703125 -12.78125 7.523438 -12.332031 6.671875 -11.4375 C 5.816406 -10.539062 5.390625 -9.265625 5.390625 -7.609375 L 5.390625 0 L 2.625 0 L 2.625 -15.28125 L 5.28125 -15.28125 Z M 5.28125 -12.71875 "/></g></g></g><g fill="#585a5d" fill-opacity="1"><g transform="translate(470.28602, 322.473224)"><g><path d="M 9.171875 0.171875 C 7.648438 0.171875 6.285156 -0.160156 5.078125 -0.828125 C 3.867188 -1.503906 2.921875 -2.429688 2.234375 -3.609375 C 1.554688 -4.796875 1.21875 -6.140625 1.21875 -7.640625 C 1.21875 -9.140625 1.554688 -10.476562 2.234375 -11.65625 C 2.921875 -12.84375 3.867188 -13.769531 5.078125 -14.4375 C 6.285156 -15.101562 7.648438 -15.4375 9.171875 -15.4375 C 10.691406 -15.4375 12.050781 -15.101562 13.25 -14.4375 C 14.457031 -13.769531 15.398438 -12.84375 16.078125 -11.65625 C 16.765625 -10.476562 17.109375 -9.140625 17.109375 -7.640625 C 17.109375 -6.140625 16.765625 -4.796875 16.078125 -3.609375 C 15.398438 -2.429688 14.457031 -1.503906 13.25 -0.828125 C 12.050781 -0.160156 10.691406 0.171875 9.171875 0.171875 Z M 9.171875 -2.25 C 10.148438 -2.25 11.03125 -2.472656 11.8125 -2.921875 C 12.59375 -3.378906 13.203125 -4.015625 13.640625 -4.828125 C 14.085938 -5.648438 14.3125 -6.585938 14.3125 -7.640625 C 14.3125 -8.703125 14.085938 -9.640625 13.640625 -10.453125 C 13.203125 -11.273438 12.59375 -11.90625 11.8125 -12.34375 C 11.03125 -12.789062 10.148438 -13.015625 9.171875 -13.015625 C 8.191406 -13.015625 7.3125 -12.789062 6.53125 -12.34375 C 5.75 -11.90625 5.132812 -11.273438 4.6875 -10.453125 C 4.238281 -9.640625 4.015625 -8.703125 4.015625 -7.640625 C 4.015625 -6.585938 4.238281 -5.648438 4.6875 -4.828125 C 5.132812 -4.015625 5.75 -3.378906 6.53125 -2.921875 C 7.3125 -2.472656 8.191406 -2.25 9.171875 -2.25 Z M 9.171875 -2.25 "/></g></g></g><g fill="#585a5d" fill-opacity="1"><g transform="translate(488.658434, 322.473224)"><g><path d="M 21.75 -15.4375 C 23.664062 -15.4375 25.1875 -14.875 26.3125 -13.75 C 27.4375 -12.632812 28 -10.984375 28 -8.796875 L 28 0 L 25.234375 0 L 25.234375 -8.484375 C 25.234375 -9.960938 24.890625 -11.078125 24.203125 -11.828125 C 23.523438 -12.578125 22.550781 -12.953125 21.28125 -12.953125 C 19.882812 -12.953125 18.769531 -12.515625 17.9375 -11.640625 C 17.113281 -10.765625 16.703125 -9.507812 16.703125 -7.875 L 16.703125 0 L 13.9375 0 L 13.9375 -8.484375 C 13.9375 -9.960938 13.59375 -11.078125 12.90625 -11.828125 C 12.226562 -12.578125 11.253906 -12.953125 9.984375 -12.953125 C 8.578125 -12.953125 7.457031 -12.515625 6.625 -11.640625 C 5.800781 -10.765625 5.390625 -9.507812 5.390625 -7.875 L 5.390625 0 L 2.625 0 L 2.625 -15.28125 L 5.28125 -15.28125 L 5.28125 -13.015625 C 5.832031 -13.796875 6.5625 -14.394531 7.46875 -14.8125 C 8.375 -15.226562 9.40625 -15.4375 10.5625 -15.4375 C 11.75 -15.4375 12.800781 -15.191406 13.71875 -14.703125 C 14.644531 -14.222656 15.359375 -13.523438 15.859375 -12.609375 C 16.441406 -13.492188 17.242188 -14.1875 18.265625 -14.6875 C 19.296875 -15.1875 20.457031 -15.4375 21.75 -15.4375 Z M 21.75 -15.4375 "/></g></g></g><g fill="#585a5d" fill-opacity="1"><g transform="translate(519.20222, 322.473224)"><g/></g></g><g fill="#585a5d" fill-opacity="1"><g transform="translate(527.018431, 322.473224)"><g><path d="M 11.21875 -0.890625 C 10.8125 -0.546875 10.3125 -0.28125 9.71875 -0.09375 C 9.125 0.0820312 8.507812 0.171875 7.875 0.171875 C 6.332031 0.171875 5.140625 -0.238281 4.296875 -1.0625 C 3.453125 -1.894531 3.03125 -3.078125 3.03125 -4.609375 L 3.03125 -13.015625 L 0.4375 -13.015625 L 0.4375 -15.28125 L 3.03125 -15.28125 L 3.03125 -18.640625 L 5.796875 -18.640625 L 5.796875 -15.28125 L 10.1875 -15.28125 L 10.1875 -13.015625 L 5.796875 -13.015625 L 5.796875 -4.734375 C 5.796875 -3.898438 6 -3.257812 6.40625 -2.8125 C 6.820312 -2.375 7.414062 -2.15625 8.1875 -2.15625 C 9.03125 -2.15625 9.753906 -2.398438 10.359375 -2.890625 Z M 11.21875 -0.890625 "/></g></g></g><g fill="#585a5d" fill-opacity="1"><g transform="translate(539.016746, 322.473224)"><g><path d="M 10.78125 -15.4375 C 12.726562 -15.4375 14.273438 -14.875 15.421875 -13.75 C 16.566406 -12.625 17.140625 -10.972656 17.140625 -8.796875 L 17.140625 0 L 14.359375 0 L 14.359375 -8.484375 C 14.359375 -9.960938 14.003906 -11.078125 13.296875 -11.828125 C 12.585938 -12.578125 11.566406 -12.953125 10.234375 -12.953125 C 8.734375 -12.953125 7.550781 -12.515625 6.6875 -11.640625 C 5.820312 -10.765625 5.390625 -9.507812 5.390625 -7.875 L 5.390625 0 L 2.625 0 L 2.625 -21.40625 L 5.390625 -21.40625 L 5.390625 -13.125 C 5.972656 -13.851562 6.726562 -14.421875 7.65625 -14.828125 C 8.59375 -15.234375 9.632812 -15.4375 10.78125 -15.4375 Z M 10.78125 -15.4375 "/></g></g></g><g fill="#585a5d" fill-opacity="1"><g transform="translate(558.715908, 322.473224)"><g><path d="M 16.4375 -7.5625 C 16.4375 -7.34375 16.421875 -7.0625 16.390625 -6.71875 L 3.984375 -6.71875 C 4.148438 -5.375 4.738281 -4.289062 5.75 -3.46875 C 6.757812 -2.65625 8.015625 -2.25 9.515625 -2.25 C 11.347656 -2.25 12.820312 -2.863281 13.9375 -4.09375 L 15.453125 -2.3125 C 14.765625 -1.5 13.90625 -0.878906 12.875 -0.453125 C 11.84375 -0.0351562 10.695312 0.171875 9.4375 0.171875 C 7.820312 0.171875 6.390625 -0.15625 5.140625 -0.8125 C 3.890625 -1.476562 2.921875 -2.40625 2.234375 -3.59375 C 1.554688 -4.789062 1.21875 -6.140625 1.21875 -7.640625 C 1.21875 -9.117188 1.546875 -10.453125 2.203125 -11.640625 C 2.867188 -12.835938 3.78125 -13.769531 4.9375 -14.4375 C 6.101562 -15.101562 7.421875 -15.4375 8.890625 -15.4375 C 10.347656 -15.4375 11.648438 -15.101562 12.796875 -14.4375 C 13.941406 -13.769531 14.832031 -12.835938 15.46875 -11.640625 C 16.113281 -10.453125 16.4375 -9.09375 16.4375 -7.5625 Z M 8.890625 -13.09375 C 7.554688 -13.09375 6.441406 -12.6875 5.546875 -11.875 C 4.660156 -11.070312 4.140625 -10.015625 3.984375 -8.703125 L 13.78125 -8.703125 C 13.632812 -9.992188 13.113281 -11.046875 12.21875 -11.859375 C 11.320312 -12.679688 10.210938 -13.09375 8.890625 -13.09375 Z M 8.890625 -13.09375 "/></g></g></g><g fill="#585a5d" fill-opacity="1"><g transform="translate(576.42496, 322.473224)"><g/></g></g><g fill="#585a5d" fill-opacity="1"><g transform="translate(584.241171, 322.473224)"><g><path d="M 10.734375 -15.4375 C 12.210938 -15.4375 13.535156 -15.109375 14.703125 -14.453125 C 15.878906 -13.796875 16.796875 -12.878906 17.453125 -11.703125 C 18.117188 -10.535156 18.453125 -9.179688 18.453125 -7.640625 C 18.453125 -6.109375 18.117188 -4.75 17.453125 -3.5625 C 16.796875 -2.375 15.878906 -1.453125 14.703125 -0.796875 C 13.535156 -0.148438 12.210938 0.171875 10.734375 0.171875 C 9.628906 0.171875 8.617188 -0.0351562 7.703125 -0.453125 C 6.796875 -0.878906 6.023438 -1.5 5.390625 -2.3125 L 5.390625 5.59375 L 2.625 5.59375 L 2.625 -15.28125 L 5.28125 -15.28125 L 5.28125 -12.859375 C 5.894531 -13.710938 6.671875 -14.351562 7.609375 -14.78125 C 8.554688 -15.21875 9.597656 -15.4375 10.734375 -15.4375 Z M 10.5 -2.25 C 11.476562 -2.25 12.359375 -2.472656 13.140625 -2.921875 C 13.921875 -3.378906 14.535156 -4.015625 14.984375 -4.828125 C 15.429688 -5.648438 15.65625 -6.585938 15.65625 -7.640625 C 15.65625 -8.703125 15.429688 -9.640625 14.984375 -10.453125 C 14.535156 -11.273438 13.921875 -11.90625 13.140625 -12.34375 C 12.359375 -12.789062 11.476562 -13.015625 10.5 -13.015625 C 9.539062 -13.015625 8.671875 -12.785156 7.890625 -12.328125 C 7.109375 -11.878906 6.488281 -11.25 6.03125 -10.4375 C 5.582031 -9.632812 5.359375 -8.703125 5.359375 -7.640625 C 5.359375 -6.585938 5.578125 -5.648438 6.015625 -4.828125 C 6.460938 -4.015625 7.082031 -3.378906 7.875 -2.921875 C 8.664062 -2.472656 9.539062 -2.25 10.5 -2.25 Z M 10.5 -2.25 "/></g></g></g><g fill="#585a5d" fill-opacity="1"><g transform="translate(603.969173, 322.473224)"><g><path d="M 8.1875 -15.4375 C 10.300781 -15.4375 11.921875 -14.914062 13.046875 -13.875 C 14.171875 -12.832031 14.734375 -11.285156 14.734375 -9.234375 L 14.734375 0 L 12.109375 0 L 12.109375 -2.015625 C 11.648438 -1.304688 10.992188 -0.765625 10.140625 -0.390625 C 9.285156 -0.015625 8.269531 0.171875 7.09375 0.171875 C 5.382812 0.171875 4.015625 -0.238281 2.984375 -1.0625 C 1.953125 -1.894531 1.4375 -2.984375 1.4375 -4.328125 C 1.4375 -5.671875 1.925781 -6.75 2.90625 -7.5625 C 3.894531 -8.382812 5.453125 -8.796875 7.578125 -8.796875 L 11.96875 -8.796875 L 11.96875 -9.34375 C 11.96875 -10.539062 11.617188 -11.453125 10.921875 -12.078125 C 10.234375 -12.710938 9.21875 -13.03125 7.875 -13.03125 C 6.96875 -13.03125 6.082031 -12.878906 5.21875 -12.578125 C 4.351562 -12.285156 3.625 -11.890625 3.03125 -11.390625 L 1.875 -13.46875 C 2.664062 -14.101562 3.609375 -14.585938 4.703125 -14.921875 C 5.796875 -15.265625 6.957031 -15.4375 8.1875 -15.4375 Z M 7.5625 -1.96875 C 8.613281 -1.96875 9.523438 -2.203125 10.296875 -2.671875 C 11.066406 -3.140625 11.625 -3.804688 11.96875 -4.671875 L 11.96875 -6.8125 L 7.703125 -6.8125 C 5.359375 -6.8125 4.1875 -6.019531 4.1875 -4.4375 C 4.1875 -3.664062 4.484375 -3.0625 5.078125 -2.625 C 5.671875 -2.1875 6.5 -1.96875 7.5625 -1.96875 Z M 7.5625 -1.96875 "/></g></g></g><g fill="#585a5d" fill-opacity="1"><g transform="translate(621.274431, 322.473224)"><g><path d="M 7.015625 0.171875 C 5.765625 0.171875 4.5625 0.00390625 3.40625 -0.328125 C 2.25 -0.671875 1.34375 -1.097656 0.6875 -1.609375 L 1.84375 -3.8125 C 2.519531 -3.332031 3.335938 -2.945312 4.296875 -2.65625 C 5.253906 -2.363281 6.222656 -2.21875 7.203125 -2.21875 C 9.628906 -2.21875 10.84375 -2.910156 10.84375 -4.296875 C 10.84375 -4.753906 10.675781 -5.117188 10.34375 -5.390625 C 10.019531 -5.660156 9.613281 -5.859375 9.125 -5.984375 C 8.632812 -6.109375 7.9375 -6.25 7.03125 -6.40625 C 5.800781 -6.59375 4.796875 -6.8125 4.015625 -7.0625 C 3.242188 -7.3125 2.578125 -7.734375 2.015625 -8.328125 C 1.460938 -8.929688 1.1875 -9.769531 1.1875 -10.84375 C 1.1875 -12.226562 1.757812 -13.335938 2.90625 -14.171875 C 4.0625 -15.015625 5.613281 -15.4375 7.5625 -15.4375 C 8.570312 -15.4375 9.585938 -15.3125 10.609375 -15.0625 C 11.628906 -14.8125 12.46875 -14.472656 13.125 -14.046875 L 11.9375 -11.859375 C 10.6875 -12.660156 9.21875 -13.0625 7.53125 -13.0625 C 6.351562 -13.0625 5.457031 -12.867188 4.84375 -12.484375 C 4.226562 -12.097656 3.921875 -11.585938 3.921875 -10.953125 C 3.921875 -10.453125 4.09375 -10.054688 4.4375 -9.765625 C 4.789062 -9.484375 5.21875 -9.273438 5.71875 -9.140625 C 6.226562 -9.003906 6.945312 -8.851562 7.875 -8.6875 C 9.101562 -8.46875 10.097656 -8.238281 10.859375 -8 C 11.617188 -7.757812 12.265625 -7.347656 12.796875 -6.765625 C 13.335938 -6.191406 13.609375 -5.390625 13.609375 -4.359375 C 13.609375 -2.972656 13.015625 -1.867188 11.828125 -1.046875 C 10.648438 -0.234375 9.046875 0.171875 7.015625 0.171875 Z M 7.015625 0.171875 "/></g></g></g><g fill="#585a5d" fill-opacity="1"><g transform="translate(635.782013, 322.473224)"><g><path d="M 11.21875 -0.890625 C 10.8125 -0.546875 10.3125 -0.28125 9.71875 -0.09375 C 9.125 0.0820312 8.507812 0.171875 7.875 0.171875 C 6.332031 0.171875 5.140625 -0.238281 4.296875 -1.0625 C 3.453125 -1.894531 3.03125 -3.078125 3.03125 -4.609375 L 3.03125 -13.015625 L 0.4375 -13.015625 L 0.4375 -15.28125 L 3.03125 -15.28125 L 3.03125 -18.640625 L 5.796875 -18.640625 L 5.796875 -15.28125 L 10.1875 -15.28125 L 10.1875 -13.015625 L 5.796875 -13.015625 L 5.796875 -4.734375 C 5.796875 -3.898438 6 -3.257812 6.40625 -2.8125 C 6.820312 -2.375 7.414062 -2.15625 8.1875 -2.15625 C 9.03125 -2.15625 9.753906 -2.398438 10.359375 -2.890625 Z M 11.21875 -0.890625 "/></g></g></g><g fill="#f75f01" fill-opacity="1"><g transform="translate(838.613229, 152.105127)"><g><path d="M 12.625 39.78125 L 3.65625 39.78125 L 19.5 5.859375 L 25.515625 5.859375 L 41.359375 39.78125 L 32.4375 39.78125 L 22.484375 17.140625 Z M 12.625 39.78125 "/></g></g></g></svg>