<svg xmlns="http://www.w3.org/2000/svg" xmlns:xlink="http://www.w3.org/1999/xlink" width="556" zoomAndPan="magnify" viewBox="0 0 416.88 167.249994" height="223" preserveAspectRatio="xMidYMid meet" version="1.0"><defs><g/><clipPath id="525221ac0b"><path d="M 0.871094 16.613281 L 415.660156 16.613281 L 415.660156 145.542969 L 0.871094 145.542969 Z M 0.871094 16.613281 " clip-rule="nonzero"/></clipPath><clipPath id="481ee8af85"><path d="M 0.878906 16.613281 L 415.652344 16.613281 L 415.652344 145.539062 L 0.878906 145.539062 Z M 0.878906 16.613281 " clip-rule="nonzero"/></clipPath><clipPath id="239ebd027c"><path d="M 68.394531 95.660156 L 86.824219 95.660156 L 86.824219 98.664062 L 68.394531 98.664062 Z M 68.394531 95.660156 " clip-rule="nonzero"/></clipPath><clipPath id="926af4ce96"><path d="M 68.394531 100.886719 L 86.824219 100.886719 L 86.824219 103.890625 L 68.394531 103.890625 Z M 68.394531 100.886719 " clip-rule="nonzero"/></clipPath><clipPath id="048c510181"><path d="M 68.394531 106.113281 L 86.824219 106.113281 L 86.824219 109.117188 L 68.394531 109.117188 Z M 68.394531 106.113281 " clip-rule="nonzero"/></clipPath><clipPath id="a6233b4f31"><path d="M 68.394531 111.339844 L 86.824219 111.339844 L 86.824219 114.34375 L 68.394531 114.34375 Z M 68.394531 111.339844 " clip-rule="nonzero"/></clipPath></defs><g clip-path="url(#525221ac0b)"><path fill="#000000" d="M 0.871094 16.613281 L 415.863281 16.613281 L 415.863281 145.542969 L 0.871094 145.542969 Z M 0.871094 16.613281 " fill-opacity="1" fill-rule="nonzero"/></g><g clip-path="url(#481ee8af85)"><path stroke-linecap="butt" transform="matrix(0.746652, 0, 0, 0.746652, 0.877325, 16.613522)" fill="none" stroke-linejoin="miter" d="M 0.0021176 -0.000322823 L 555.513371 -0.000322823 L 555.513371 172.671589 L 0.0021176 172.671589 Z M 0.0021176 -0.000322823 " stroke="#000000" stroke-width="2" stroke-opacity="1" stroke-miterlimit="4"/></g><g fill="#ffffff" fill-opacity="1"><g transform="translate(63.027158, 100.896774)"><g><path d="M 46.046875 -9.953125 L 38.328125 -9.953125 L 38.328125 0 L 27.625 0 L 27.625 -9.953125 L 2.09375 -9.953125 L 2.09375 -17.34375 L 24.453125 -47.40625 L 35.953125 -47.40625 L 15.234375 -18.890625 L 27.96875 -18.890625 L 27.96875 -27.765625 L 38.328125 -27.765625 L 38.328125 -18.890625 L 46.046875 -18.890625 Z M 46.046875 -9.953125 "/></g></g></g><g fill="#ffffff" fill-opacity="1"><g transform="translate(110.564382, 100.896774)"><g><path d="M 4.875 -36.4375 L 15.4375 -36.4375 L 15.4375 0 L 4.875 0 Z M 10.15625 -41.515625 C 8.207031 -41.515625 6.625 -42.078125 5.40625 -43.203125 C 4.1875 -44.328125 3.578125 -45.726562 3.578125 -47.40625 C 3.578125 -49.070312 4.1875 -50.46875 5.40625 -51.59375 C 6.625 -52.726562 8.207031 -53.296875 10.15625 -53.296875 C 12.09375 -53.296875 13.671875 -52.753906 14.890625 -51.671875 C 16.109375 -50.585938 16.71875 -49.234375 16.71875 -47.609375 C 16.71875 -45.847656 16.109375 -44.390625 14.890625 -43.234375 C 13.671875 -42.085938 12.09375 -41.515625 10.15625 -41.515625 Z M 10.15625 -41.515625 "/></g></g></g><g clip-path="url(#239ebd027c)"><path fill="#f75f01" d="M 68.394531 95.660156 L 86.820312 95.660156 L 86.820312 98.664062 L 68.394531 98.664062 Z M 68.394531 95.660156 " fill-opacity="1" fill-rule="nonzero"/></g><g clip-path="url(#926af4ce96)"><path fill="#6e9f42" d="M 68.394531 100.886719 L 86.820312 100.886719 L 86.820312 103.890625 L 68.394531 103.890625 Z M 68.394531 100.886719 " fill-opacity="1" fill-rule="nonzero"/></g><g clip-path="url(#048c510181)"><path fill="#6e9f42" d="M 68.394531 106.113281 L 86.820312 106.113281 L 86.820312 109.117188 L 68.394531 109.117188 Z M 68.394531 106.113281 " fill-opacity="1" fill-rule="nonzero"/></g><g clip-path="url(#a6233b4f31)"><path fill="#6e9f42" d="M 68.394531 111.339844 L 86.820312 111.339844 L 86.820312 114.34375 L 68.394531 114.34375 Z M 68.394531 111.339844 " fill-opacity="1" fill-rule="nonzero"/></g><g fill="#6e9f42" fill-opacity="1"><g transform="translate(129.892658, 101.110819)"><g><path d="M 37.921875 -18.625 C 37.921875 -18.394531 37.921875 -18.171875 37.921875 -17.953125 C 37.921875 -17.734375 37.898438 -17.410156 37.859375 -16.984375 L 7.125 -16.984375 C 7.238281 -14.828125 7.691406 -12.878906 8.484375 -11.140625 C 9.273438 -9.410156 10.296875 -7.921875 11.546875 -6.671875 C 12.804688 -5.429688 14.21875 -4.484375 15.78125 -3.828125 C 17.351562 -3.179688 18.976562 -2.859375 20.65625 -2.859375 C 23.238281 -2.859375 25.5625 -3.484375 27.625 -4.734375 C 29.695312 -5.992188 31.210938 -7.820312 32.171875 -10.21875 L 36.671875 -10.21875 C 35.953125 -8.0625 34.804688 -6.144531 33.234375 -4.46875 C 31.660156 -2.789062 29.800781 -1.472656 27.65625 -0.515625 C 25.519531 0.429688 23.207031 0.90625 20.71875 0.90625 C 18.257812 0.90625 15.960938 0.429688 13.828125 -0.515625 C 11.703125 -1.472656 9.832031 -2.796875 8.21875 -4.484375 C 6.601562 -6.171875 5.335938 -8.140625 4.421875 -10.390625 C 3.515625 -12.648438 3.0625 -15.070312 3.0625 -17.65625 C 3.0625 -20.238281 3.515625 -22.65625 4.421875 -24.90625 C 5.335938 -27.164062 6.601562 -29.148438 8.21875 -30.859375 C 9.832031 -32.566406 11.703125 -33.894531 13.828125 -34.84375 C 15.960938 -35.800781 18.257812 -36.28125 20.71875 -36.28125 C 23.164062 -36.28125 25.4375 -35.804688 27.53125 -34.859375 C 29.625 -33.921875 31.445312 -32.632812 33 -31 C 34.5625 -29.363281 35.769531 -27.476562 36.625 -25.34375 C 37.488281 -23.21875 37.921875 -20.976562 37.921875 -18.625 Z M 7.296875 -20.578125 L 33.84375 -20.578125 C 33.75 -22.160156 33.34375 -23.664062 32.625 -25.09375 C 31.90625 -26.53125 30.945312 -27.800781 29.75 -28.90625 C 28.550781 -30.007812 27.171875 -30.875 25.609375 -31.5 C 24.046875 -32.132812 22.394531 -32.453125 20.65625 -32.453125 C 19.050781 -32.453125 17.507812 -32.175781 16.03125 -31.625 C 14.550781 -31.082031 13.203125 -30.289062 11.984375 -29.25 C 10.765625 -28.21875 9.742188 -26.96875 8.921875 -25.5 C 8.109375 -24.039062 7.566406 -22.398438 7.296875 -20.578125 Z M 7.296875 -20.578125 "/></g></g></g><g fill="#6e9f42" fill-opacity="1"><g transform="translate(170.22453, 101.110819)"><g><path d="M 10.4375 0 L 6.421875 0 L 6.421875 -35.34375 L 10.296875 -35.34375 L 10.296875 -27.421875 C 10.960938 -29.140625 11.96875 -30.660156 13.3125 -31.984375 C 14.664062 -33.316406 16.273438 -34.363281 18.140625 -35.125 C 20.003906 -35.894531 22.003906 -36.28125 24.140625 -36.28125 C 28.796875 -36.28125 32.367188 -34.878906 34.859375 -32.078125 C 37.347656 -29.273438 38.59375 -25.003906 38.59375 -19.265625 L 38.59375 0 L 34.546875 0 L 34.546875 -19.1875 C 34.546875 -23.769531 33.550781 -27.128906 31.5625 -29.265625 C 29.570312 -31.410156 26.796875 -32.484375 23.234375 -32.484375 C 21.554688 -32.484375 19.957031 -32.160156 18.4375 -31.515625 C 16.914062 -30.878906 15.550781 -29.96875 14.34375 -28.78125 C 13.132812 -27.59375 12.179688 -26.175781 11.484375 -24.53125 C 10.785156 -22.894531 10.4375 -21.066406 10.4375 -19.046875 Z M 10.4375 0 "/></g></g></g><g fill="#6e9f42" fill-opacity="1"><g transform="translate(214.673323, 101.110819)"><g><path d="M 37.921875 -18.625 C 37.921875 -18.394531 37.921875 -18.171875 37.921875 -17.953125 C 37.921875 -17.734375 37.898438 -17.410156 37.859375 -16.984375 L 7.125 -16.984375 C 7.238281 -14.828125 7.691406 -12.878906 8.484375 -11.140625 C 9.273438 -9.410156 10.296875 -7.921875 11.546875 -6.671875 C 12.804688 -5.429688 14.21875 -4.484375 15.78125 -3.828125 C 17.351562 -3.179688 18.976562 -2.859375 20.65625 -2.859375 C 23.238281 -2.859375 25.5625 -3.484375 27.625 -4.734375 C 29.695312 -5.992188 31.210938 -7.820312 32.171875 -10.21875 L 36.671875 -10.21875 C 35.953125 -8.0625 34.804688 -6.144531 33.234375 -4.46875 C 31.660156 -2.789062 29.800781 -1.472656 27.65625 -0.515625 C 25.519531 0.429688 23.207031 0.90625 20.71875 0.90625 C 18.257812 0.90625 15.960938 0.429688 13.828125 -0.515625 C 11.703125 -1.472656 9.832031 -2.796875 8.21875 -4.484375 C 6.601562 -6.171875 5.335938 -8.140625 4.421875 -10.390625 C 3.515625 -12.648438 3.0625 -15.070312 3.0625 -17.65625 C 3.0625 -20.238281 3.515625 -22.65625 4.421875 -24.90625 C 5.335938 -27.164062 6.601562 -29.148438 8.21875 -30.859375 C 9.832031 -32.566406 11.703125 -33.894531 13.828125 -34.84375 C 15.960938 -35.800781 18.257812 -36.28125 20.71875 -36.28125 C 23.164062 -36.28125 25.4375 -35.804688 27.53125 -34.859375 C 29.625 -33.921875 31.445312 -32.632812 33 -31 C 34.5625 -29.363281 35.769531 -27.476562 36.625 -25.34375 C 37.488281 -23.21875 37.921875 -20.976562 37.921875 -18.625 Z M 7.296875 -20.578125 L 33.84375 -20.578125 C 33.75 -22.160156 33.34375 -23.664062 32.625 -25.09375 C 31.90625 -26.53125 30.945312 -27.800781 29.75 -28.90625 C 28.550781 -30.007812 27.171875 -30.875 25.609375 -31.5 C 24.046875 -32.132812 22.394531 -32.453125 20.65625 -32.453125 C 19.050781 -32.453125 17.507812 -32.175781 16.03125 -31.625 C 14.550781 -31.082031 13.203125 -30.289062 11.984375 -29.25 C 10.765625 -28.21875 9.742188 -26.96875 8.921875 -25.5 C 8.109375 -24.039062 7.566406 -22.398438 7.296875 -20.578125 Z M 7.296875 -20.578125 "/></g></g></g><g fill="#6e9f42" fill-opacity="1"><g transform="translate(255.005189, 101.110819)"><g><path d="M 10.46875 0 L 6.421875 0 L 6.421875 -35.34375 L 10.328125 -35.34375 L 10.328125 -26.171875 C 11.234375 -29.054688 12.726562 -31.304688 14.8125 -32.921875 C 16.894531 -34.535156 19.316406 -35.34375 22.078125 -35.34375 L 25.21875 -35.34375 L 25.21875 -31.71875 L 22.265625 -31.71875 C 20.078125 -31.71875 18.09375 -31.125 16.3125 -29.9375 C 14.53125 -28.75 13.109375 -27.039062 12.046875 -24.8125 C 10.992188 -22.59375 10.46875 -19.925781 10.46875 -16.8125 Z M 10.46875 0 "/></g></g></g><g fill="#6e9f42" fill-opacity="1"><g transform="translate(281.625623, 101.110819)"><g><path d="M 21.359375 13.21875 C 18.421875 13.21875 15.914062 12.84375 13.84375 12.09375 C 11.78125 11.351562 10.082031 10.367188 8.75 9.140625 C 7.425781 7.910156 6.425781 6.53125 5.75 5 C 5.082031 3.476562 4.691406 1.941406 4.578125 0.390625 L 8.40625 0.390625 C 8.59375 1.566406 8.953125 2.710938 9.484375 3.828125 C 10.023438 4.953125 10.800781 5.945312 11.8125 6.8125 C 12.820312 7.6875 14.101562 8.382812 15.65625 8.90625 C 17.21875 9.4375 19.101562 9.703125 21.3125 9.703125 C 23.914062 9.703125 26.125 9.285156 27.9375 8.453125 C 29.757812 7.628906 31.234375 6.515625 32.359375 5.109375 C 33.484375 3.703125 34.300781 2.113281 34.8125 0.34375 C 35.332031 -1.414062 35.59375 -3.226562 35.59375 -5.09375 L 35.59375 -10.125 C 34.726562 -8.125 33.546875 -6.394531 32.046875 -4.9375 C 30.546875 -3.476562 28.820312 -2.363281 26.875 -1.59375 C 24.9375 -0.832031 22.863281 -0.453125 20.65625 -0.453125 C 18.1875 -0.453125 15.878906 -0.914062 13.734375 -1.84375 C 11.597656 -2.78125 9.734375 -4.066406 8.140625 -5.703125 C 6.546875 -7.347656 5.300781 -9.242188 4.40625 -11.390625 C 3.507812 -13.546875 3.0625 -15.84375 3.0625 -18.28125 C 3.0625 -20.726562 3.503906 -23.03125 4.390625 -25.1875 C 5.273438 -27.351562 6.515625 -29.265625 8.109375 -30.921875 C 9.703125 -32.585938 11.554688 -33.890625 13.671875 -34.828125 C 15.785156 -35.773438 18.078125 -36.25 20.546875 -36.25 C 22.921875 -36.25 25.101562 -35.816406 27.09375 -34.953125 C 29.082031 -34.097656 30.800781 -32.929688 32.25 -31.453125 C 33.707031 -29.972656 34.820312 -28.304688 35.59375 -26.453125 L 35.59375 -35.34375 L 39.453125 -35.34375 L 39.453125 -5.296875 C 39.453125 -2.859375 39.097656 -0.53125 38.390625 1.6875 C 37.679688 3.914062 36.59375 5.894531 35.125 7.625 C 33.664062 9.351562 31.796875 10.71875 29.515625 11.71875 C 27.234375 12.71875 24.515625 13.21875 21.359375 13.21875 Z M 21.28125 -4.109375 C 23.238281 -4.109375 25.078125 -4.472656 26.796875 -5.203125 C 28.515625 -5.941406 30.019531 -6.960938 31.3125 -8.265625 C 32.601562 -9.566406 33.613281 -11.070312 34.34375 -12.78125 C 35.082031 -14.488281 35.453125 -16.320312 35.453125 -18.28125 C 35.453125 -20.207031 35.082031 -22.023438 34.34375 -23.734375 C 33.613281 -25.453125 32.601562 -26.960938 31.3125 -28.265625 C 30.019531 -29.566406 28.515625 -30.585938 26.796875 -31.328125 C 25.078125 -32.078125 23.238281 -32.453125 21.28125 -32.453125 C 19.300781 -32.453125 17.457031 -32.085938 15.75 -31.359375 C 14.039062 -30.640625 12.535156 -29.632812 11.234375 -28.34375 C 9.929688 -27.050781 8.910156 -25.546875 8.171875 -23.828125 C 7.441406 -22.109375 7.078125 -20.257812 7.078125 -18.28125 C 7.078125 -16.300781 7.441406 -14.453125 8.171875 -12.734375 C 8.910156 -11.015625 9.929688 -9.507812 11.234375 -8.21875 C 12.535156 -6.925781 14.039062 -5.914062 15.75 -5.1875 C 17.457031 -4.46875 19.300781 -4.109375 21.28125 -4.109375 Z M 21.28125 -4.109375 "/></g></g></g><g fill="#6e9f42" fill-opacity="1"><g transform="translate(327.504874, 101.110819)"><g><path d="M 7.578125 12.078125 L 1.84375 12.078125 L 1.84375 8.578125 L 7.703125 8.578125 C 9.265625 8.578125 10.515625 8.273438 11.453125 7.671875 C 12.398438 7.066406 13.207031 6.15625 13.875 4.9375 C 14.550781 3.71875 15.253906 2.175781 15.984375 0.3125 L 16.296875 -0.5625 L 1.921875 -35.34375 L 6.171875 -35.34375 L 17.65625 -7.359375 L 18.421875 -4.703125 L 19.296875 -7.328125 L 30.671875 -35.34375 L 35 -35.34375 L 20.859375 -1.109375 C 19.910156 1.253906 19.023438 3.269531 18.203125 4.9375 C 17.390625 6.601562 16.519531 7.960938 15.59375 9.015625 C 14.664062 10.078125 13.566406 10.851562 12.296875 11.34375 C 11.023438 11.832031 9.453125 12.078125 7.578125 12.078125 Z M 7.578125 12.078125 "/></g></g></g><g fill="#f75f01" fill-opacity="1"><g transform="translate(337.562746, 55.066479)"><g><path d="M 4.578125 14.421875 L 1.328125 14.421875 L 7.0625 2.125 L 9.25 2.125 L 15 14.421875 L 11.75 14.421875 L 8.15625 6.21875 Z M 4.578125 14.421875 "/></g></g></g></svg>