<svg xmlns="http://www.w3.org/2000/svg" xmlns:xlink="http://www.w3.org/1999/xlink" width="346" zoomAndPan="magnify" viewBox="0 0 259.5 247.499998" height="330" preserveAspectRatio="xMidYMid meet" version="1.0"><defs><g/><clipPath id="476d9031b0"><path d="M 30.035156 24.007812 L 228.605469 24.007812 L 228.605469 222.609375 L 30.035156 222.609375 Z M 30.035156 24.007812 " clip-rule="nonzero"/></clipPath><clipPath id="50b810879e"><path d="M 71.78125 161.40625 L 109.289062 161.40625 L 109.289062 167.519531 L 71.78125 167.519531 Z M 71.78125 161.40625 " clip-rule="nonzero"/></clipPath><clipPath id="17dda661fe"><path d="M 71.78125 172.042969 L 109.289062 172.042969 L 109.289062 178.152344 L 71.78125 178.152344 Z M 71.78125 172.042969 " clip-rule="nonzero"/></clipPath><clipPath id="e666c45fff"><path d="M 71.78125 182.679688 L 109.289062 182.679688 L 109.289062 188.789062 L 71.78125 188.789062 Z M 71.78125 182.679688 " clip-rule="nonzero"/></clipPath><clipPath id="d0b86cc600"><path d="M 71.78125 193.316406 L 109.289062 193.316406 L 109.289062 199.425781 L 71.78125 199.425781 Z M 71.78125 193.316406 " clip-rule="nonzero"/></clipPath></defs><g clip-path="url(#476d9031b0)"><path stroke-linecap="butt" transform="matrix(0.666556, 0, 0, 0.666556, 30.036285, 24.008596)" fill="none" stroke-linejoin="miter" d="M -0.00169395 -0.00117569 L 297.903436 -0.00117569 L 297.903436 297.950837 L -0.00169395 297.950837 Z M -0.00169395 -0.00117569 " stroke="#000000" stroke-width="2.245838" stroke-opacity="1" stroke-miterlimit="4"/></g><g fill="#585a5d" fill-opacity="1"><g transform="translate(60.528033, 173.218309)"><g><path d="M 94.515625 -20.4375 L 78.671875 -20.4375 L 78.671875 0 L 56.703125 0 L 56.703125 -20.4375 L 4.3125 -20.4375 L 4.3125 -35.578125 L 50.171875 -97.296875 L 73.796875 -97.296875 L 31.265625 -38.78125 L 57.40625 -38.78125 L 57.40625 -56.984375 L 78.671875 -56.984375 L 78.671875 -38.78125 L 94.515625 -38.78125 Z M 94.515625 -20.4375 "/></g></g></g><g fill="#585a5d" fill-opacity="1"><g transform="translate(156.280636, 173.218309)"><g><path d="M 10 -74.78125 L 31.6875 -74.78125 L 31.6875 0 L 10 0 Z M 20.84375 -85.203125 C 16.863281 -85.203125 13.625 -86.359375 11.125 -88.671875 C 8.625 -90.984375 7.375 -93.859375 7.375 -97.296875 C 7.375 -100.722656 8.625 -103.59375 11.125 -105.90625 C 13.625 -108.21875 16.863281 -109.375 20.84375 -109.375 C 24.832031 -109.375 28.078125 -108.257812 30.578125 -106.03125 C 33.078125 -103.8125 34.328125 -101.035156 34.328125 -97.703125 C 34.328125 -94.085938 33.078125 -91.097656 30.578125 -88.734375 C 28.078125 -86.378906 24.832031 -85.203125 20.84375 -85.203125 Z M 20.84375 -85.203125 "/></g></g></g><g clip-path="url(#50b810879e)"><path fill="#f75f01" d="M 71.78125 161.40625 L 109.28125 161.40625 L 109.28125 167.519531 L 71.78125 167.519531 Z M 71.78125 161.40625 " fill-opacity="1" fill-rule="nonzero"/></g><g clip-path="url(#17dda661fe)"><path fill="#6e9f42" d="M 71.78125 172.042969 L 109.28125 172.042969 L 109.28125 178.152344 L 71.78125 178.152344 Z M 71.78125 172.042969 " fill-opacity="1" fill-rule="nonzero"/></g><g clip-path="url(#e666c45fff)"><path fill="#6e9f42" d="M 71.78125 182.679688 L 109.28125 182.679688 L 109.28125 188.789062 L 71.78125 188.789062 Z M 71.78125 182.679688 " fill-opacity="1" fill-rule="nonzero"/></g><g clip-path="url(#d0b86cc600)"><path fill="#6e9f42" d="M 71.78125 193.316406 L 109.28125 193.316406 L 109.28125 199.425781 L 71.78125 199.425781 Z M 71.78125 193.316406 " fill-opacity="1" fill-rule="nonzero"/></g></svg>